HIERARCHY
ROOT Hips
{
	OFFSET 0.000000 0.000000 0.000000
	CHANNELS 6 Xposition Yposition Zposition Xrotation Yrotation Zrotation
	JOINT Chest
	{
		OFFSET 0.000000 0.009282 11.569106
		CHANNELS 3 Xrotation Yrotation Zrotation
		JOINT Chest2
		{
			OFFSET 0.000000 -0.016863 9.269641
			CHANNELS 3 Xrotation Yrotation Zrotation
			JOINT Chest3
			{
				OFFSET 0.000000 0.000000 8.374491
				CHANNELS 3 Xrotation Yrotation Zrotation
				JOINT Chest4
				{
					OFFSET 0.000000 0.000000 8.374493
					CHANNELS 3 Xrotation Yrotation Zrotation
					JOINT Neck
					{
						OFFSET 0.000000 -0.000001 12.152554
						CHANNELS 3 Xrotation Yrotation Zrotation
						JOINT Head
						{
							OFFSET 0.000000 -0.040100 7.802319
							CHANNELS 3 Xrotation Yrotation Zrotation
							End Site
							{
								OFFSET 0.000000 -0.020946 14.853096
							}
						}
					}
					JOINT RightCollar
					{
						OFFSET -2.894404 0.000000 6.791374
						CHANNELS 3 Xrotation Yrotation Zrotation
						JOINT RightShoulder
						{
							OFFSET -13.574684 0.000000 0.000000
							CHANNELS 3 Xrotation Yrotation Zrotation
							JOINT RightElbow
							{
								OFFSET -23.923903 0.000000 0.000000
								CHANNELS 3 Xrotation Yrotation Zrotation
								JOINT RightWrist
								{
									OFFSET -19.846718 -0.012765 0.000000
									CHANNELS 3 Xrotation Yrotation Zrotation
									End Site
									{
										OFFSET -14.973145 0.000000 0.000000
									}
								}
							}
						}
					}
					JOINT LeftCollar
					{
						OFFSET 2.894404 0.000000 6.791374
						CHANNELS 3 Xrotation Yrotation Zrotation
						JOINT LeftShoulder
						{
							OFFSET 13.574684 0.000000 0.000000
							CHANNELS 3 Xrotation Yrotation Zrotation
							JOINT LeftElbow
							{
								OFFSET 23.923903 0.000000 0.000000
								CHANNELS 3 Xrotation Yrotation Zrotation
								JOINT LeftWrist
								{
									OFFSET 19.846718 -0.012765 0.000000
									CHANNELS 3 Xrotation Yrotation Zrotation
									End Site
									{
										OFFSET 14.973145 0.000000 0.000000
									}
								}
							}
						}
					}
				}
			}
		}
	}
	JOINT RightHip
	{
		OFFSET -9.469263 -0.004642 0.045487
		CHANNELS 3 Xrotation Yrotation Zrotation
		JOINT RightKnee
		{
			OFFSET 0.000000 -0.002666 -40.478676
			CHANNELS 3 Xrotation Yrotation Zrotation
			JOINT RightAnkle
			{
				OFFSET 0.000000 -0.049110 -35.224068
				CHANNELS 3 Xrotation Yrotation Zrotation
				JOINT RightToe
				{
					OFFSET 0.000000 -12.539530 -6.151390
					CHANNELS 3 Xrotation Yrotation Zrotation
					End Site
					{
						OFFSET 0.000000 -5.044995 -1.291870
					}
				}
			}
		}
	}
	JOINT LeftHip
	{
		OFFSET 9.469263 -0.004642 0.045487
		CHANNELS 3 Xrotation Yrotation Zrotation
		JOINT LeftKnee
		{
			OFFSET 0.000000 -0.002666 -40.478676
			CHANNELS 3 Xrotation Yrotation Zrotation
			JOINT LeftAnkle
			{
				OFFSET 0.000000 -0.049110 -35.224068
				CHANNELS 3 Xrotation Yrotation Zrotation
				JOINT LeftToe
				{
					OFFSET 0.000000 -12.539530 -6.151390
					CHANNELS 3 Xrotation Yrotation Zrotation
					End Site
					{
						OFFSET 0.000000 -5.044995 -1.291870
					}
				}
			}
		}
	}
}
MOTION
Frames: 12
Frame Time: 0.016667
-10.341414 -2.286930 82.924446 3.552186 6.859748 -115.591772 -1.139487 7.096384 3.717214 -0.451924 3.165354 1.648380 -0.451924 3.165354 1.648383 -0.330316 2.375261 1.233633 23.040542 1.144137 9.329834 6.934743 -0.329372 17.392590 -14.234808 4.930083 -12.578919 -20.251934 -20.598891 39.937509 26.657308 27.539044 13.739895 -16.730938 58.712900 53.293603 18.585274 4.268399 -17.198433 32.377214 47.754255 -91.665489 37.031073 -5.006028 -55.491732 3.076988 -71.141898 -57.901761 10.706237 -1.669761 -2.993956 2.373879 -0.715798 0.399716 -5.569500 -1.784916 5.000301 0.049078 0.132847 -0.007502 12.042321 -2.271295 3.802128 0.647779 -0.575554 -0.127192 -5.172667 1.661095 3.809751 -0.006910 0.043434 0.002796 
-10.336799 -2.281356 82.925278 3.550337 6.861504 -115.566145 -1.148993 7.089744 3.716854 -0.456262 3.162285 1.647760 -0.456262 3.162284 1.647769 -0.333579 2.372968 1.233149 23.039198 1.125766 9.306031 6.932496 -0.357103 17.344272 -14.221641 4.954798 -12.586164 -20.251243 -20.592778 39.953687 26.633168 27.518945 13.738826 -16.491471 58.667090 53.070935 18.595726 4.272436 -17.206162 32.359684 47.759811 -91.643489 37.044764 -5.009029 -55.505884 3.337341 -71.151843 -57.643545 10.705749 -1.671132 -2.998593 2.380455 -0.725350 0.384544 -5.574385 -1.791129 4.995996 0.046102 0.118523 -0.007204 12.033406 -2.276564 3.804908 0.655702 -0.576680 -0.152645 -5.173285 1.659284 3.806193 -0.004664 0.038052 0.003410 
-10.333280 -2.277169 82.926239 3.546744 6.865326 -115.547676 -1.149334 7.086471 3.717228 -0.456874 3.160950 1.648312 -0.456875 3.160950 1.648320 -0.334038 2.371969 1.233560 23.035305 1.108766 9.282869 6.925425 -0.382829 17.297516 -14.234866 4.961011 -12.588991 -20.237938 -20.572991 39.957515 26.573303 27.517234 13.779368 -16.263473 58.631088 52.841731 18.587622 4.275724 -17.212411 32.337438 47.750273 -91.616217 37.049026 -5.005583 -55.536248 3.547425 -71.152095 -57.442123 10.710070 -1.674001 -3.008821 2.376634 -0.727575 0.368500 -5.573902 -1.801226 4.970470 0.044370 0.107738 -0.007063 12.028603 -2.278377 3.802313 0.660162 -0.575631 -0.170179 -5.170629 1.657582 3.843166 -0.004770 0.032307 0.003251 
-10.328919 -2.273089 82.927559 3.544431 6.867779 -115.532213 -1.149420 7.083138 3.713922 -0.457202 3.159675 1.647136 -0.457203 3.159673 1.647139 -0.334296 2.371014 1.232674 23.034856 1.095253 9.263007 6.924548 -0.402566 17.257672 -14.236119 4.963819 -12.591677 -20.250442 -20.563820 39.960046 26.527295 27.509000 13.825687 -16.032390 58.609956 52.616762 18.606040 4.259274 -17.209416 32.273808 47.737883 -91.582236 37.038880 -5.018390 -55.593679 3.777030 -71.122104 -57.222341 10.714881 -1.668004 -3.037224 2.373280 -0.734372 0.369907 -5.569412 -1.814593 5.023162 0.041236 0.097664 -0.005774 12.025852 -2.282640 3.791487 0.657351 -0.577736 -0.172932 -5.162273 1.662982 3.837227 -0.006040 0.026344 0.002469 
-10.325653 -2.273440 82.928688 3.541327 6.866746 -115.522623 -1.154616 7.072546 3.711668 -0.459628 3.154354 1.646295 -0.459630 3.154356 1.646294 -0.336135 2.367028 1.232036 23.040154 1.090366 9.242687 6.933197 -0.405722 17.219137 -14.212889 4.987292 -12.594305 -20.270564 -20.556728 39.980666 26.498287 27.493760 13.840004 -15.777228 58.584568 52.374878 18.606110 4.264858 -17.210917 32.229170 47.743579 -91.541125 37.039744 -5.029106 -55.671981 4.063106 -71.108416 -56.942689 10.712184 -1.667075 -3.066023 2.370959 -0.737950 0.384137 -5.564725 -1.822757 5.034497 0.039481 0.088220 -0.007627 12.022966 -2.280346 3.784886 0.649361 -0.578376 -0.174944 -5.153633 1.662500 3.851341 -0.005938 0.020175 0.003080 
-10.321399 -2.277341 82.929817 3.537721 6.866671 -115.518689 -1.157716 7.064517 3.707225 -0.460845 3.150960 1.644044 -0.460847 3.150961 1.644047 -0.337065 2.364480 1.230350 23.045661 1.087222 9.227617 6.942472 -0.406993 17.190666 -14.215563 5.002478 -12.590955 -20.253131 -20.546869 40.014103 26.476219 27.478816 13.828567 -15.533448 58.562336 52.150229 18.596086 4.267801 -17.211773 32.188995 47.755402 -91.494141 37.033675 -5.022322 -55.750599 4.228854 -71.102338 -56.789820 10.707050 -1.658136 -3.063490 2.372388 -0.743567 0.380352 -5.561899 -1.830568 5.027929 0.038395 0.077009 -0.007592 12.021059 -2.280767 3.788456 0.636866 -0.575882 -0.173329 -5.140093 1.665097 3.815817 -0.006431 0.014849 0.002181 
-10.314196 -2.282430 82.931641 3.533627 6.865600 -115.516025 -1.154203 7.064451 3.707501 -0.458906 3.151478 1.643681 -0.458905 3.151475 1.643678 -0.335613 2.364865 1.230082 23.048091 1.074272 9.212787 6.947288 -0.426583 17.160160 -14.240413 4.995773 -12.593693 -20.233162 -20.526388 40.024622 26.448337 27.464631 13.827578 -15.335218 58.521238 51.962040 18.595432 4.240720 -17.220717 32.138571 47.762215 -91.459921 37.014469 -5.028232 -55.832073 4.424019 -71.054130 -56.603690 10.694453 -1.654855 -3.037972 2.379546 -0.741823 0.352985 -5.556735 -1.840130 5.031829 0.035787 0.067854 -0.007604 12.019294 -2.269155 3.786688 0.619818 -0.581574 -0.164335 -5.122406 1.665152 3.833345 -0.007673 0.009822 0.002949 
-10.304361 -2.292278 82.934013 3.528475 6.856196 -115.522787 -1.147895 7.063705 3.708577 -0.455620 3.151375 1.643347 -0.455618 3.151375 1.643347 -0.333149 2.364775 1.229846 23.047804 1.059391 9.199262 6.947391 -0.450392 17.131574 -14.241045 5.003882 -12.605455 -20.250618 -20.529974 40.024130 26.417485 27.447646 13.848371 -15.111000 58.464008 51.728636 18.567545 4.233149 -17.225187 32.097641 47.764373 -91.423619 36.992171 -5.019140 -55.918762 4.875016 -70.998389 -56.149500 10.669719 -1.646714 -3.005192 2.388616 -0.740586 0.336587 -5.546723 -1.854771 5.049933 0.032424 0.061334 -0.006325 12.007333 -2.264281 3.787233 0.601187 -0.585037 -0.150550 -5.101100 1.670025 3.824564 -0.008318 0.004976 0.001505 
-10.294759 -2.305601 82.936333 3.528062 6.847062 -115.531557 -1.146327 7.064124 3.716835 -0.454943 3.151021 1.646464 -0.454945 3.151022 1.646467 -0.332628 2.364519 1.232193 23.055341 1.041133 9.181977 6.962071 -0.478410 17.095166 -14.198980 5.013919 -12.641601 -20.301556 -20.552886 40.024396 26.414222 27.432627 13.860910 -14.864679 58.407857 51.481062 18.543135 4.221969 -17.238093 32.070631 47.780179 -91.391899 36.982913 -4.973692 -56.015563 5.320973 -70.930381 -55.690354 10.648248 -1.643350 -2.986254 2.389560 -0.743116 0.325760 -5.531767 -1.867527 5.031838 0.030500 0.058172 -0.007888 11.999203 -2.258827 3.782731 0.579702 -0.586231 -0.137733 -5.079862 1.669866 3.806680 -0.008042 -0.000730 0.002916 
-10.285129 -2.322036 82.938377 3.529784 6.840466 -115.538169 -1.152818 7.059117 3.723908 -0.457918 3.148371 1.649456 -0.457919 3.148375 1.649460 -0.334853 2.362539 1.234424 23.071657 1.026115 9.165264 6.992590 -0.499560 17.060580 -14.171525 5.012386 -12.647710 -20.335235 -20.551986 40.009722 26.425182 27.415075 13.862353 -14.661928 58.357416 51.289837 18.550842 4.212818 -17.250952 32.020217 47.794962 -91.349887 36.975250 -4.925886 -56.116769 5.587885 -70.882638 -55.403885 10.632100 -1.633994 -2.975606 2.387463 -0.747810 0.311301 -5.515636 -1.885513 5.027658 0.029298 0.055116 -0.008196 11.990873 -2.259613 3.771542 0.562152 -0.578033 -0.122287 -5.060986 1.664160 3.786284 -0.006020 -0.004798 0.003078 
-10.273547 -2.338107 82.940102 3.531991 6.831143 -115.546802 -1.158339 7.049797 3.728674 -0.460777 3.144352 1.651912 -0.460777 3.144356 1.651916 -0.336990 2.359531 1.236253 23.087279 1.015556 9.151590 7.021582 -0.513413 17.032713 -14.170091 5.010876 -12.640489 -20.337187 -20.538135 40.005685 26.430605 27.391190 13.839684 -14.595324 58.321175 51.225585 18.561263 4.202665 -17.260779 31.977341 47.786998 -91.316597 36.942622 -4.898988 -56.212863 5.696065 -70.832579 -55.298632 10.617381 -1.631891 -2.970603 2.373968 -0.743709 0.307101 -5.492256 -1.906541 5.041533 0.029215 0.053114 -0.008452 11.978436 -2.254473 3.762902 0.548647 -0.574750 -0.104791 -5.045330 1.656652 3.811882 -0.003223 -0.008636 0.004752 
-10.262275 -2.358709 82.941895 3.534308 6.823829 -115.556555 -1.152072 7.043462 3.733557 -0.458356 3.140898 1.654517 -0.458356 3.140897 1.654514 -0.335175 2.356939 1.238222 23.092176 1.007303 9.139444 7.030567 -0.524818 17.008307 -14.147375 5.016464 -12.656551 -20.361552 -20.540986 40.010275 26.413417 27.375842 13.821180 -14.539603 58.271936 51.144060 18.549312 4.190282 -17.276308 31.934877 47.751618 -91.287678 36.891139 -4.898287 -56.298142 5.879706 -70.795703 -55.129090 10.602949 -1.627427 -2.972193 2.360939 -0.735808 0.310024 -5.469004 -1.929471 5.050422 0.030081 0.049055 -0.008086 11.966976 -2.251104 3.766745 0.532803 -0.570189 -0.098202 -5.025482 1.650090 3.810712 -0.001638 -0.011161 0.003756 
